<?xml version="1.0" standalone="no"?><!DOCTYPE svg PUBLIC "-//W3C//DTD SVG 1.1//EN" "http://www.w3.org/Graphics/SVG/1.1/DTD/svg11.dtd"><svg t="1619697786238" class="icon" viewBox="0 0 1024 1024" version="1.1" xmlns="http://www.w3.org/2000/svg" p-id="5132" xmlns:xlink="http://www.w3.org/1999/xlink" width="100" height="100"><defs><style type="text/css"></style></defs><path d="M722.62425354 295.85168196h-98.9786702v42.41943008H722.62425354c28.57419943 0 51.69868042 22.97719129 51.69868041 51.10952166V766.00036539c0 27.98504069-23.27177067 50.66765259-51.69868041 50.66765259H342.91143841c-28.27962006 0-51.40410106-22.68261193-51.40410102-50.66765259V389.52792339c0-28.13233036 23.12448098-51.10952167 51.40410102-51.10952167h99.42053926v-42.41943008h-99.42053926c-51.69868042 0-93.82353113 41.97756103-93.82353111 93.52895175v376.61973168c0 51.40410106 42.12485071 93.23437237 93.82353111 93.23437238H722.62425354c51.99325979 0 94.26540019-41.83027133 94.26540019-93.23437238V389.52792339c0-51.69868042-42.27214039-93.67624144-94.26540019-93.67624143z" fill="#ff5577" p-id="5133"></path><path d="M421.41684202 486.29724827c-8.10093283-8.10093283-21.06242535-8.10093283-29.16335819 0s-8.10093283 21.06242535 0 29.16335818l126.07997275 126.22726244c3.82953187 3.82953187 9.13196064 6.03887719 14.5816791 6.0388772s10.75214722-2.20934532 14.58167908-6.0388772l126.22726243-126.22726244c8.10093283-8.10093283 8.10093283-21.06242535 0-29.16335818s-21.06242535-8.10093283-29.16335817 0l-90.28857863 90.28857861V136.63152945c0-11.78317502-9.5738297-21.20971504-21.20971504-21.20971503s-21.20971504 9.5738297-21.20971505 21.20971503v440.10158714l-90.43586828-90.43586832z" fill="#ff5577" p-id="5134"></path></svg>